<?xml version="1.0" encoding="UTF-8"?>
<svg id="_Слой_2" data-name="Слой 2" xmlns="http://www.w3.org/2000/svg" viewBox="0 0 97.98 64.83">
  <g id="_Слой_1-2" data-name="Слой 1">
    <g>
      <path d="M33.01,64.75c-3.3-.59-6.23-1.71-8.77-3.35-2.55-1.63-5.48-4.54-8.77-8.7-.75-1.04-1.35-1.49-1.8-1.34-1.95,.89-4.65,1.56-8.1,2.01-1.95,0-3.45-.37-4.5-1.12-1.2-1.04-1.38-2.19-.56-3.46,.83-1.26,2.36-2.04,4.61-2.34,2.55-.45,4.8-.07,6.75,1.12l2.02,1.12,2.25-1.12c3.9-1.79,8.4-5.13,13.5-10.04,11.55-10.56,19.05-20.3,22.5-29.23,1.35-3.87,1.42-6.02,.22-6.47-1.35-.3-3.15-.07-5.4,.67-3.3,1.04-6.83,2.83-10.57,5.35-3.75,2.53-6.68,5.21-8.77,8.03-2.4,3.12-4.24,6.55-5.51,10.26-1.28,3.72-1.54,6.77-.79,9.15,.3,1.04,.6,1.56,.9,1.56,.15,.3,.52,.45,1.12,.45s1.05-.15,1.35-.45h.67c.3,.15,.07,.37-.67,.67-.3,.15-.67,.3-1.12,.45-1.05,.15-1.88-.22-2.47-1.12-.6-.89-1.05-2.3-1.35-4.24-.45-6.25,2.1-12.64,7.65-19.19C32.64,7.49,38.86,3.25,46.06,.72c4.2-1.34,7.2-.82,9,1.56,.45,.89,.68,1.86,.68,2.9,0,6.69-5.62,15.99-16.87,27.89-8.1,8.48-15.15,14.05-21.15,16.73l-1.8,.89,2.25,2.9c.45,.6,1.05,1.38,1.8,2.34,.75,.97,1.2,1.53,1.35,1.67,1.65,1.64,4.27,3.27,7.87,4.91,3.6,1.34,7.12,1.19,10.57-.45,1.05-.59,1.65-.82,1.8-.67,.3,.3,.45,.52,.45,.67,0,.6-1.73,1.42-5.17,2.46-1.05,.3-2.33,.37-3.82,.22ZM2.87,51.37c.75,.3,2.92-.15,6.52-1.34,1.65-.45,2.47-.74,2.47-.89,.15-.15-.15-.37-.9-.67-1.5-.59-3.22-.63-5.17-.11-1.95,.52-3.15,1.3-3.6,2.34,0,.45,.22,.67,.67,.67Z"/>
      <path d="M48.31,56.5c-1.05-1.04-1.87-2.53-2.47-4.46,0-.3-.07-.59-.22-.89-.15-.3-.3-.63-.45-1-.15-.37-.22-.63-.22-.78-.45-.59-.45-.89,0-.89,.3-.15,.71,0,1.24,.45,.53,.45,.86,.97,1.01,1.56l.9,2.68c.6,1.94,1.65,2.9,3.15,2.9,2.85,0,6.41-1.41,10.69-4.24,4.27-2.82,8.36-6.39,12.26-10.71,3-3.42,6.3-7.73,9.9-12.94l3.15-4.91c0,.15-.23,.37-.67,.67-7.65,5.95-13.5,9.89-17.55,11.82-4.65,1.94-8.1,2.09-10.35,.45-3.6-2.82-2.47-8.62,3.38-17.4,6.15-9.22,13.2-15.09,21.15-17.62,2.7-.59,5.17-.59,7.42,0,2.25,.75,3.75,2.23,4.5,4.46,.75,2.08,.6,4.61-.45,7.59l-.9,1.78,2.25-2.68c.15-.74,.67-.67,1.58,.22,.45,.6,.52,1.04,.22,1.34l-2.25,2.9-6.08,8.7c-6.3,9.07-11.4,15.54-15.3,19.41-4.8,5.21-9.67,8.92-14.62,11.15-4.8,2.38-8.55,2.53-11.25,.45Zm14.17-20.75c2.7-.15,6.97-2.08,12.82-5.8,7.65-5.05,12.9-9.74,15.75-14.06,1.8-2.68,2.7-5.2,2.7-7.58,0-2.97-.68-4.76-2.03-5.35-1.65-.59-3.6-.67-5.85-.22-5.7,1.34-11.33,5.13-16.87,11.38-3.6,3.87-6.38,7.85-8.32,11.94-1.95,4.09-2.47,6.95-1.58,8.59,.45,.89,1.58,1.27,3.38,1.12Z"/>
    </g>
  </g>
</svg>