<?xml version="1.0" encoding="UTF-8"?>
<svg id="_Слой_2" data-name="Слой 2" xmlns="http://www.w3.org/2000/svg" viewBox="0 0 614.19 340.65">
  <g id="_Слой_1-2" data-name="Слой 1">
    <g>
      <path d="M138.97,92.49c1.72-1.19,2.66-1.45,2.84-.77l-.26,.77c-6.54,5.29-21.92,11.51-46.17,18.67l-5.16,1.53c-9.29,6.65-17.5,11.21-24.63,13.68-7.14,2.47-15.35,3.54-24.63,3.2-12.9-.34-20.72-.34-23.47,0-1.21,.34-2.67,1.28-4.38,2.81-5.67,4.09-9.12,6.23-10.32,6.39-.52,.17-1.12,.09-1.81-.26-1.89-1.19-1.03-3.07,2.58-5.63,1.89-1.36,4.13-2.47,6.71-3.33,2.75-1.02,4.99-2.3,6.71-3.84,9.11-7.5,16.93-15.09,23.47-22.76l1.55-1.53c-16.68-15.86-20.21-33.85-10.58-53.97,5.33-10.74,13.88-20.67,25.66-29.8C68.85,8.56,80.42,2.97,91.77,.93c13.58-2.73,24.5,.56,32.76,9.85,8.25,9.3,10.83,21.1,7.74,35.42-4.99,26.09-17.97,47.41-38.95,63.94,.52,0,2.66-.6,6.45-1.79,6.53-1.7,13.93-4.18,22.18-7.42,8.25-3.24,13.93-6.05,17.02-8.44ZM8.2,132.91l-1.29,.26-1.55,1.02-2.58,2.05c0,.17,.43,0,1.29-.51,.86-.51,1.72-1.06,2.58-1.66,.86-.6,1.37-.98,1.55-1.15Zm64.22-11.25c.69-.34,1.42-.72,2.19-1.15,.77-.42,1.59-.9,2.45-1.41,.86-.51,1.72-1.02,2.58-1.53,.86-.51,1.68-1.02,2.45-1.53,.77-.51,1.46-.98,2.06-1.41,.6-.42,.99-.81,1.16-1.15l.52-.26-3.35,.26c-12.55,1.88-24.93-1.19-37.14-9.21-.17-.34-1.64,.86-4.38,3.58-4.82,5.29-10.15,10.32-15.99,15.09l-5.16,4.09c-.17,.17,0,.34,.52,.51,1.03,.17,3.61,.26,7.74,.26,16.51,0,27.25-.6,32.24-1.79,3.61-.85,7.65-2.3,12.12-4.35Zm16.25-10.49c1.72-.68,5.93-4.35,12.64-11,13.58-13.47,23.04-30.01,28.37-49.62,4.3-17.56,1.89-30.86-7.22-39.9-7.22-7.67-18.05-10.06-32.5-7.16-7.74,2.05-15.82,5.88-24.25,11.51-12.04,7.85-21.32,16.71-27.86,26.6-6.54,9.89-9.5,19.99-8.9,30.31,.6,10.32,5.29,19.57,14.06,27.75,.17,.17,3.31-3.88,9.41-12.15,6.1-8.27,9.67-13.26,10.7-14.96,13.58-18.58,23.04-30.52,28.37-35.81,3.78-4.09,7.39-7.29,10.83-9.59,3.44-2.3,5.76-3.11,6.96-2.43,.68,.51,.6,1.02-.26,1.53-.17,0-1.12,.51-2.84,1.53-7.05,5.12-19.43,19.95-37.14,44.5-5.16,6.99-11.95,15.86-20.38,26.6l-2.84,3.58c9.8,7.51,19.86,10.91,30.18,10.23,5.67-.34,9.89-.85,12.64-1.53Z"/>
      <path d="M134.06,105.03c-2.24-2.21-2.06-5.12,.52-8.7,1.89-3.24,4.64-5.63,8.25-7.16,2.06-.85,3.52-.85,4.38,0,.68,.51,.81,1.37,.39,2.56-.43,1.19-1.25,2.22-2.45,3.07-2.41,1.71-4.9,2.73-7.48,3.07-.69,0-1.29,.43-1.81,1.28-2.06,3.58-1.12,5.63,2.84,6.14,7.74,0,17.37-4,28.89-12.02l3.09-2.05c.17-.17,.43-.17,.77,0,.34,.17,.43,.43,.26,.77-6.36,5.12-13.59,9.21-21.67,12.28-8.08,3.07-13.41,3.33-15.99,.77Zm3.87-8.7c1.2,0,2.92-.68,5.16-2.05,1.55-1.02,2.58-2.13,3.09-3.33,.17-.51,0-.77-.52-.77l-2.84,1.53c-3.44,2.56-5.07,4.09-4.9,4.6Z"/>
      <path d="M182.03,108.35c-4.13,1.2-6.88,.68-8.25-1.53-1.03-2.05,0-5.12,3.1-9.21,1.03-1.36,1.46-2.05,1.29-2.05-.69,.34-2.06,.51-4.13,.51l-3.61,.26-3.87,4.09c-3.61,4.09-5.33,6.48-5.16,7.16,.17,.51,0,.77-.52,.77l-.52-.51c-.34-.17-.6-.34-.77-.51-.34-.51-.43-1.19-.26-2.05l1.81-3.33c1.03-1.36,3.65-4.3,7.87-8.82,4.21-4.52,7-7.46,8.38-8.82,1.89-1.53,3.09-2.05,3.61-1.53,1.2,.85-.6,3.75-5.42,8.7l-4.13,3.84,2.84-.26c3.26-.17,5.58-.85,6.96-2.05,3.61-3.41,5.93-4.6,6.96-3.58,.86,.68,.43,1.71-1.29,3.07-1.89,1.53-4,3.54-6.32,6.01-2.32,2.47-3.83,4.31-4.51,5.5-.86,2.56-.3,3.84,1.68,3.84s4.17-.6,6.58-1.79c4.47-1.7,11.09-5.63,19.86-11.77l4.9-3.33c.34-.17,.6-.17,.77,0,.17,.17,.17,.43,0,.77-.52,.68-4.64,3.67-12.38,8.95-6.02,4.26-11.18,6.82-15.48,7.67Z"/>
      <path d="M208.34,112.7c0-2.39,1.89-6.14,5.67-11.25l1.81-2.56-.26,.26c-.17,0-.48,.13-.9,.38-.43,.26-.82,.47-1.16,.64-5.16,2.73-8.34,4.09-9.54,4.09-.69,0-1.21-.17-1.55-.51-1.21-1.7-.09-4.69,3.35-8.95,3.61-4.94,6.45-7.84,8.51-8.7l.77-.26c.68,0,1.2,.51,1.55,1.53,.34,.51-.86,2.05-3.61,4.6-1.38,1.2-2.8,2.6-4.26,4.22-1.46,1.62-2.62,2.99-3.48,4.09-.86,1.11-1.21,1.75-1.03,1.92,0,.17,.73-.04,2.19-.64,1.46-.6,3.18-1.41,5.16-2.43,1.98-1.02,3.65-1.96,5.03-2.81,1.55-1.02,3.52-2.56,5.93-4.6,2.75-2.56,4.38-3.58,4.9-3.07,.52,.68,.6,1.37,.26,2.05-.35,.68-1.89,2.3-4.64,4.86-7.39,7.33-11.69,12.53-12.9,15.6-1.55,3.92,1.29,4.35,8.51,1.28,9.11-3.92,20.63-11,34.56-21.23,.68-.34,1.29-.26,1.81,.26-4.99,4.09-11.09,8.27-18.31,12.53-8.77,5.63-15.39,9.21-19.86,10.74-5.67,2.22-8.51,1.53-8.51-2.05Z"/>
      <path d="M248.06,105.8c-1.89-1.53-2.5-3.49-1.81-5.88,.86-2.39,2.62-4.94,5.29-7.67,2.66-2.73,5.37-4.69,8.12-5.88,1.55-.68,2.92-.9,4.13-.64,1.2,.26,1.81,.81,1.81,1.66,0,1.37-1.03,3.16-3.1,5.37-2.58,2.22-4.3,3.33-5.16,3.33-1.21,0-1.03-.51,.52-1.53,1.89-1.19,3.52-2.6,4.9-4.22,1.38-1.62,1.81-2.69,1.29-3.2-.52-.51-2.15,.17-4.9,2.05-3.61,2.22-6.49,4.9-8.64,8.06-2.15,3.16-2.8,5.5-1.93,7.03,.69,1.53,3.26,2.05,7.74,1.53,4.47-.51,9.29-1.96,14.44-4.35,4.64-2.21,9.2-4.94,13.67-8.18,.52-.34,1.2-.77,2.06-1.28l1.29-1.02c.52,0,.86,.26,1.03,.77l-1.29,1.02c-2.58,2.05-6.19,4.44-10.83,7.16l-5.67,2.81c-10.83,5.29-18.49,6.31-22.96,3.07Z"/>
      <path d="M193,296.49c-9.12-5.12-10.66-17.39-4.64-36.83,4.3-14.49,12.29-28.65,23.99-42.46,11.86-13.81,23.64-23.7,35.33-29.67,5.5-2.9,10.92-4.69,16.25-5.37,3.95-.34,7.74-.17,11.35,.51,3.78,.86,7.13,2.73,10.06,5.63l1.29,1.28,.26-1.28c.34-2.9,2.32-6.31,5.93-10.23,2.75-3.07,5.67-4.94,8.77-5.63,.34-.17,1.07-.17,2.19,0,1.12,.17,1.93,.34,2.45,.51,1.37,.85,1.72,2.39,1.03,4.6-.35,1.02-1.42,2.3-3.22,3.84s-2.97,2.05-3.48,1.53c-.17-.17,0-.42,.52-.77,2.41-1.87,3.95-3.41,4.64-4.6,1.2-2.56,.86-3.75-1.03-3.58-1.21,.17-2.93,1.02-5.16,2.56-3.96,2.56-6.96,5.88-9.03,9.98-1.38,2.39-2.06,4.6-2.06,6.65,.17,.51,.17,.86,0,1.02-.52,.34-.95,0-1.29-1.02-.17-.17-.26-.34-.26-.51-.52-1.7-1.85-3.33-4-4.86-2.15-1.53-4.43-2.47-6.83-2.81-3.44-.85-6.36-.85-8.77,0-3.61,1.19-6.02,2.05-7.22,2.56-5.5,2.73-9.29,4.86-11.35,6.39-7.4,4.78-14.62,10.66-21.67,17.65-8.94,8.7-17.71,20.04-26.31,34.02-17.37,28.82-18.14,45.78-2.32,50.9,5.84,1.88,14.92-.89,27.21-8.31,12.29-7.42,28.07-18.12,47.33-32.1,2.41-1.87,4.21-3.24,5.42-4.09,1.37-1.19,2.23-1.36,2.58-.51,.17,.17-1.21,1.32-4.13,3.45-2.93,2.13-6.88,4.99-11.86,8.57-22.53,16.03-37.4,25.92-44.62,29.67-11.86,5.8-20.98,6.91-27.34,3.33Z"/>
      <path d="M287.4,268.1c-3.61-1.19-4.22-5.63-1.81-13.3l.52-2.05c-.35-.34-1.46,.26-3.35,1.79-1.38,1.02-3.18,2.6-5.42,4.73-2.24,2.13-3.53,3.54-3.87,4.22-.52,.86-.77,1.45-.77,1.79,0,.68-.35,.68-1.03,0-1.38-1.36,.6-5.63,5.93-12.79,2.41-3.24,4.81-5.88,7.22-7.93,1.38-1.19,2.41-1.36,3.1-.51,.52,.68-.35,2.22-2.58,4.6-2.24,2.05-3.96,4.01-5.16,5.88,.34-.17,.69-.42,1.03-.77,6.71-5.63,13.41-9.63,20.12-12.02,1.89-.68,3.35-.77,4.38-.26,1.03,.51,1.46,1.45,1.29,2.81-.17,1.02-1.16,2.86-2.97,5.5-1.81,2.65-3.31,4.48-4.51,5.5-1.21,1.2-2.06,1.54-2.58,1.02-.17-.17,.08-.51,.77-1.02,.86-.68,2.58-2.81,5.16-6.39,1.72-3.07,2.58-4.94,2.58-5.63,0-1.53-3.44-.51-10.32,3.07-.17,.17-.43,.34-.77,.51-4.3,2.39-6.79,3.92-7.48,4.6,0,.34,.08,.6,.26,.77,.52,.51,.34,1.96-.52,4.35-.35,1.37-.52,3.07-.52,5.12-.17,3.58,.94,5.37,3.35,5.37,3.44,0,8.68-2.39,15.73-7.16,1.38-.85,3.95-2.81,7.74-5.88l3.61-2.56,.77-.51c.34-.17,.6-.17,.77,0v1.02l-2.06,1.53c-8.43,6.48-14.7,10.74-18.83,12.79-4.13,2.05-7.4,2.65-9.8,1.79Z"/>
      <path d="M319.64,269.12c-1.21-.68-1.8-1.96-1.8-3.84s.34-3.67,1.03-5.37l.52-1.28-1.55,.77c-.86,.68-1.64,1.19-2.32,1.53-.35,.17-.95,.51-1.81,1.02-.86,.51-1.55,.94-2.06,1.28-1.21,.68-2.28,.64-3.22-.13-.94-.77-1.16-1.92-.64-3.45,.69-1.7,2.54-3.75,5.55-6.14,3.01-2.39,5.71-3.92,8.12-4.6,2.06-.51,3.52-.08,4.38,1.28,.34,.51,.6,.68,.77,.51,.86-.34,1.46-.17,1.81,.51l-.26,.26c-.17,.34-.35,.64-.52,.9-.17,.26-.35,.56-.52,.9-3.44,3.41-5.67,6.48-6.71,9.21-.86,2.73-.77,4.52,.26,5.37,1.55,1.02,5.07,.43,10.57-1.79,5.67-2.21,12.72-6.48,21.15-12.79,2.92-2.21,4.3-2.81,4.13-1.79-.17,.68-2.54,2.65-7.09,5.88-4.56,3.24-8.56,5.8-11.99,7.67-2.24,1.19-4.47,2.22-6.71,3.07-2.24,.86-4.34,1.41-6.32,1.66-1.98,.26-3.57,.04-4.77-.64Zm-6.96-9.97c-.86,1.02-1.21,1.53-1.03,1.53s1.63-.77,4.38-2.3c5.84-3.24,8.77-5.71,8.77-7.42-.35-1.02-1.72-.68-4.13,1.02-2.93,1.88-5.59,4.26-8,7.16Z"/>
      <path d="M386.7,268.61c2.75,.51,11.09-4.6,25.02-15.35,1.89-1.53,3.26-2.47,4.13-2.81,.34-.17,.6-.13,.77,.13,.17,.26,.17,.47,0,.64-.35,.34-1.81,1.53-4.38,3.58-1.38,1.02-3.05,2.26-5.03,3.71-1.98,1.45-3.53,2.6-4.64,3.45-1.12,.86-2.41,1.79-3.87,2.81-1.46,1.02-2.62,1.79-3.48,2.3-.86,.51-1.85,1.07-2.97,1.66-1.12,.6-2.02,.94-2.71,1.02-.69,.09-1.46,.17-2.32,.26-.86,.09-1.59-.04-2.19-.38-.6-.34-1.25-.85-1.93-1.53-1.72-1.7-2.24-4.6-1.55-8.7,.17-.51,.43-1.28,.77-2.3,.34-1.02,.56-1.75,.64-2.17,.08-.42,.04-.81-.13-1.15-1.38,1.02-2.75,2.13-4.13,3.33-5.33,4.44-8,7.42-8,8.95,0,.34-.17,.51-.52,.51-1.03,0-1.38-.42-1.03-1.28,.34-1.02,2.58-4.69,6.71-11,3.78-5.79,5.84-9.29,6.19-10.49,.17-.85,.08-1.36-.26-1.53-.35-.17-1.12-.08-2.32,.26-6.54,1.37-14.27,5.71-23.21,13.04-.86,.68-2.11,1.83-3.74,3.45-1.64,1.62-3.1,3.07-4.38,4.35-1.29,1.28-1.93,2.01-1.93,2.17l-.26,.51c-.17,.17-.47,.13-.9-.13-.43-.26-.64-.47-.64-.64,0-1.02,2.84-4.86,8.51-11.51,2.06-2.39,3.78-4.26,5.16-5.63,1.72-1.7,2.92-2.39,3.61-2.05,.17,.17,.26,.43,.26,.77,0,.86-1.12,2.39-3.35,4.6l-.52,.51c.34-.17,1.2-.77,2.58-1.79,7.56-6.14,14.1-9.21,19.6-9.21,1.55,0,2.75,.3,3.61,.9,.86,.6,1.2,1.49,1.03,2.69-.17,1.37-1.46,3.67-3.87,6.91-.86,1.02-1.64,2.05-2.32,3.07l-.26,.26c.34-.17,.6-.34,.77-.51,1.72-1.19,2.92-1.79,3.61-1.79,.52,0,.9,.09,1.16,.26,.26,.17,.39,.43,.39,.77v.9c0,.26-.13,.68-.39,1.28-.26,.6-.39,1.07-.39,1.41-1.72,7.16-.69,11,3.09,11.51Z"/>
      <path d="M407.84,265.03c-2.24-2.21-2.06-5.12,.52-8.7,1.89-3.24,4.64-5.63,8.25-7.16,2.06-.85,3.52-.85,4.38,0,.68,.51,.81,1.37,.39,2.56-.43,1.19-1.25,2.22-2.45,3.07-2.41,1.71-4.9,2.73-7.48,3.07-.69,0-1.29,.43-1.81,1.28-2.06,3.58-1.12,5.63,2.84,6.14,7.74,0,17.37-4,28.89-12.02l3.09-2.05c.17-.17,.43-.17,.77,0,.34,.17,.43,.43,.26,.77-6.36,5.12-13.59,9.21-21.67,12.28-8.08,3.07-13.41,3.33-15.99,.77Zm3.87-8.7c1.2,0,2.92-.68,5.16-2.05,1.55-1.02,2.58-2.13,3.09-3.32,.17-.51,0-.77-.52-.77l-2.84,1.53c-3.44,2.56-5.07,4.09-4.9,4.6Z"/>
      <path d="M389.79,340.48c-.17,.34-.6,.17-1.29-.51l-.77-.26,2.32-3.58,24.76-40.16c20.8-32.74,36.11-55.16,45.91-67.27,1.2-1.36,2.06-1.96,2.58-1.79,.52,0,.77,.09,.77,.26,0,.86-3.1,5.72-9.29,14.58l-6.19,8.7,.52,.77,.52,1.02,4.64-2.56c4.47-2.21,7.74-3.49,9.8-3.84,1.72,0,2.75,.51,3.09,1.53,.69,1.71-.86,5.03-4.64,9.97l-3.35,3.84c6.53,2.56,14.53,1.2,23.99-4.09,2.92-1.7,5.93-3.67,9.03-5.88,.34-.34,.64-.42,.9-.26,.26,.17,.3,.43,.13,.77l-1.29,1.28c-3.78,2.9-6.96,4.95-9.54,6.14-8.94,4.6-17.2,5.71-24.76,3.33l-2.32,2.56c-6.19,5.8-10.41,6.74-12.64,2.81-.86-1.7-.86-3.92,0-6.65l.26-1.28c-.35,.51-2.41,3.41-6.19,8.7-8.77,11.94-18.66,27.03-29.66,45.27-10.32,16.54-16.08,25.41-17.28,26.6Zm55.2-71.87c1.37,.34,3.01-.26,4.9-1.79,.52-.34,1.25-.93,2.19-1.79,.94-.85,1.76-1.62,2.45-2.3l.77-1.28c-2.24-1.19-4.22-3.07-5.93-5.63-.17-.51-.69-.42-1.55,.26-.86,.68-1.72,1.96-2.58,3.84-1.89,5.29-1.98,8.18-.26,8.7Zm11.61-8.44c.17,0,.65-.42,1.42-1.28,.77-.85,1.68-1.92,2.71-3.2,1.03-1.28,1.81-2.34,2.32-3.2,1.03-1.36,1.72-2.56,2.06-3.58,.34-.85,.43-1.36,.26-1.53-.52-.51-3.35,.43-8.51,2.81-4.13,2.22-6.19,3.75-6.19,4.6,0,.51,.73,1.54,2.19,3.07,1.46,1.54,2.71,2.3,3.74,2.3Z"/>
      <path d="M491.92,272.7c0-2.39,1.89-6.14,5.67-11.25l1.81-2.56-.26,.26c-.17,0-.48,.13-.9,.38-.43,.26-.82,.47-1.16,.64-5.16,2.73-8.34,4.09-9.54,4.09-.69,0-1.21-.17-1.55-.51-1.21-1.7-.09-4.69,3.35-8.95,3.61-4.94,6.45-7.84,8.51-8.7l.77-.26c.68,0,1.2,.51,1.55,1.53,.34,.51-.86,2.05-3.61,4.6-1.38,1.2-2.8,2.6-4.26,4.22-1.46,1.62-2.62,2.99-3.48,4.09-.86,1.11-1.21,1.75-1.03,1.92,0,.17,.73-.04,2.19-.64,1.46-.6,3.18-1.41,5.16-2.43,1.98-1.02,3.65-1.96,5.03-2.81,1.55-1.02,3.52-2.56,5.93-4.6,2.75-2.56,4.38-3.58,4.9-3.07,.52,.68,.6,1.37,.26,2.05-.35,.68-1.89,2.3-4.64,4.86-7.39,7.33-11.69,12.53-12.9,15.6-1.55,3.92,1.29,4.35,8.51,1.28,9.11-3.92,20.63-11,34.56-21.23,.68-.34,1.29-.26,1.81,.26-4.99,4.09-11.09,8.27-18.31,12.53-8.77,5.63-15.39,9.21-19.86,10.74-5.67,2.22-8.51,1.53-8.51-2.05Z"/>
      <path d="M547.89,268.35c-4.13,1.19-6.88,.68-8.25-1.54-1.03-2.05,0-5.12,3.1-9.21,1.03-1.36,1.46-2.05,1.29-2.05-.69,.34-2.06,.51-4.13,.51l-3.61,.26-3.87,4.09c-3.61,4.09-5.33,6.48-5.16,7.16,.17,.51,0,.77-.52,.77l-.52-.51c-.34-.17-.6-.34-.77-.51-.34-.51-.43-1.19-.26-2.05l1.81-3.33c1.03-1.36,3.65-4.3,7.87-8.82,4.21-4.52,7-7.46,8.38-8.82,1.89-1.53,3.09-2.05,3.61-1.53,1.2,.85-.6,3.75-5.42,8.7l-4.13,3.84,2.84-.26c3.26-.17,5.58-.85,6.96-2.05,3.61-3.41,5.93-4.6,6.96-3.58,.86,.68,.43,1.71-1.29,3.07-1.89,1.54-4,3.54-6.32,6.01-2.32,2.47-3.83,4.31-4.51,5.5-.86,2.56-.3,3.84,1.68,3.84s4.17-.6,6.58-1.79c4.47-1.7,11.09-5.63,19.86-11.77l4.9-3.32c.34-.17,.6-.17,.77,0,.17,.17,.17,.43,0,.77-.52,.68-4.64,3.67-12.38,8.95-6.02,4.26-11.18,6.82-15.48,7.67Z"/>
      <path d="M577.29,269.12c-1.21-.68-1.8-1.96-1.8-3.84s.34-3.67,1.03-5.37l.52-1.28-1.55,.77c-.86,.68-1.64,1.19-2.32,1.53-.35,.17-.95,.51-1.81,1.02-.86,.51-1.55,.94-2.06,1.28-1.21,.68-2.28,.64-3.22-.13-.94-.77-1.16-1.92-.64-3.45,.69-1.7,2.54-3.75,5.55-6.14,3.01-2.39,5.71-3.92,8.12-4.6,2.06-.51,3.52-.08,4.38,1.28,.34,.51,.6,.68,.77,.51,.86-.34,1.46-.17,1.81,.51l-.26,.26c-.17,.34-.35,.64-.52,.9-.17,.26-.35,.56-.52,.9-3.44,3.41-5.67,6.48-6.71,9.21-.86,2.73-.77,4.52,.26,5.37,1.55,1.02,5.07,.43,10.57-1.79,5.67-2.21,12.72-6.48,21.15-12.79,2.92-2.21,4.3-2.81,4.13-1.79-.17,.68-2.54,2.65-7.09,5.88-4.56,3.24-8.56,5.8-11.99,7.67-2.24,1.19-4.47,2.22-6.71,3.07-2.24,.86-4.34,1.41-6.32,1.66-1.98,.26-3.57,.04-4.77-.64Zm-6.96-9.97c-.86,1.02-1.21,1.53-1.03,1.53s1.63-.77,4.38-2.3c5.84-3.24,8.77-5.71,8.77-7.42-.35-1.02-1.72-.68-4.13,1.02-2.93,1.88-5.59,4.26-8,7.16Z"/>
    </g>
    <path d="M379.38,182.8c-8.08,.86-13.54-1.66-16.38-7.55-2.84-5.88-2.11-12.83,2.19-20.85,5.5-9.89,13.58-16.45,24.24-19.69,1.72-.51,4.13-.77,7.22-.77h4.38l-.52-1.02c-.69-1.53-.6-3.75,.26-6.65l.52-1.79-1.29-.51c-2.75-1.02-4.56-2.81-5.42-5.37-.86-2.56-.52-4.69,1.03-6.39,.86-1.19,1.63-1.45,2.32-.77,.17,0,.08,.17-.26,.51-.69,.68-1.12,1.28-1.29,1.79-1.38,3.58-.77,6.31,1.81,8.18,2.06,1.53,3.26,2.05,3.61,1.53,1.03-2.21,3.87-4.69,8.51-7.42,2.58-1.53,5.46-2.6,8.64-3.2,3.18-.6,5.55-.55,7.09,.13,1.72,.86,2.58,2.05,2.58,3.58,0,2.05-2.58,4.09-7.74,6.14-4.64,1.71-8.6,2.56-11.86,2.56h-4.38l-1.03,2.05c-.69,1.19-1.03,2.65-1.03,4.35,0,1.37,.26,2.39,.77,3.07,.69,1.02,.94,1.53,.77,1.53-.69,0-1.29-.08-1.81-.26-4.64-1.7-10.75-.42-18.31,3.84-6.88,3.75-12.21,8.87-15.99,15.35-3.78,6.48-5.07,12.37-3.87,17.65,1.03,4.95,3.95,7.67,8.77,8.18,3.09,.34,6.27,.09,9.54-.77,7.05-1.87,14.7-6.22,22.96-13.04,5.16-4.43,9.89-10.06,14.19-16.88,1.03-1.7,2.19-3.75,3.48-6.14,1.29-2.39,2.36-4.39,3.22-6.01,.86-1.62,1.2-2.51,1.03-2.69-.52-.51-4.99,1.19-13.41,5.12-4.47,2.05-8.08,5.29-10.83,9.72l-1.29,2.56c.34,.34,.34,.51,0,.51-1.72,0-1.72-1.7,0-5.12,.52-1.19,1.29-2.3,2.32-3.32,2.58-2.9,8.17-5.88,16.76-8.95,3.44-1.19,5.55-2,6.32-2.43,.77-.42,1.07-.81,.9-1.15-.17-.34-.17-.51,0-.51s.6,.09,1.29,.26c.86,.34,3.7-.77,8.51-3.32,9.29-4.77,13.93-7.76,13.93-8.95,0-.34,.17-.42,.52-.26,1.89,1.02-1.55,3.84-10.32,8.44-1.55,.86-3.18,1.71-4.9,2.56-4.64,2.22-6.96,3.58-6.96,4.09,0,2.05-2.15,6.99-6.45,14.83-2.93,5.46-6.88,10.66-11.86,15.6-2.93,2.9-5.76,5.37-8.51,7.42-8.25,6.14-16.25,9.55-23.99,10.23Zm26.31-58.83c0,.17,1.2,.17,3.61,0,2.41-.17,4.47-.42,6.19-.77,4.3-.85,7.74-2.56,10.32-5.12,1.2-1.36,1.46-2.39,.77-3.07-.35-.34-1.03-.51-2.06-.51-3.96,0-8.69,1.79-14.19,5.37-3.09,2.05-4.64,3.41-4.64,4.09Z"/>
  </g>
</svg>