<?xml version="1.0" encoding="UTF-8"?>
<svg id="_Слой_2" data-name="Слой 2" xmlns="http://www.w3.org/2000/svg" viewBox="0 0 275.44 85.27">
  <g id="_Слой_1-2" data-name="Слой 1">
    <g>
      <path d="M46.91,8.26c.75,5.49-.69,12.05-4.34,19.7-3.65,7.65-8.91,15.17-15.78,22.57-8.38,8.98-15.17,13.47-20.37,13.47h-.63C1.77,63.99-.16,61.79,.01,57.38c.17-3.66,1.42-8.12,3.77-13.4,2.35-5.28,5.57-10.58,9.68-15.9,1.93-2.49,3.14-4.49,3.65-5.98,2.09-5.9,4.19-10.18,6.29-12.84,3.1-4.16,6.58-6.94,10.44-8.35,3.27-1.25,6.14-1.2,8.61,.12,2.47,1.33,3.96,3.74,4.46,7.23Zm-1.01,5.98c.58-4.49-.21-7.06-2.39-7.73-2.18-.66-5.24,.5-9.18,3.49-5.37,3.82-10.48,8.65-15.34,14.46-1.09,1.33-1.76,2.66-2.01,3.99-.25,1.42-.08,2.49,.5,3.24l.38,.37h-.25c-1.01,0-1.59-.42-1.76-1.25l-.5-1.99-2.26,2.99c-2.43,3.24-4.69,7.13-6.79,11.66-2.1,4.53-3.46,8.6-4.09,12.22-.63,3.62-.02,5.92,1.82,6.92,3.44,1.33,8.13-.48,14.08-5.42,5.95-4.94,11.15-10.41,15.59-16.4,7.12-9.56,11.19-18.41,12.2-26.56ZM32.7,3.15c-5.62,3.49-9.89,9.31-12.82,17.46,.08-.25,.82-1.06,2.2-2.43,1.38-1.37,3.52-3.2,6.41-5.49,2.89-2.29,5.89-4.26,8.99-5.92,2.85-1.5,5.41-1.83,7.67-1-.92-2.41-2.56-3.87-4.9-4.36-2.35-.5-4.86,.08-7.54,1.75Z"/>
      <path d="M37.35,49.4c-.33-.5-.33-1.16,0-1.99,.25-.83,1.13-2.08,2.64-3.74,.75-.91,1.51-1.58,2.26-1.99l1.26-.87c.42,0,.63-.12,.63-.37,0-.08,.21-.12,.63-.12,.33,0,.67,.08,1.01,.25l.75-1.25c2.18-4.07,3.56-7.44,4.15-10.1,1.01-4.32,1.42-8.1,1.26-11.35-.08-.58-.25-.87-.5-.87-.75,0-3.14,.79-7.17,2.37-.08,0-.21,.04-.38,.12l-.63,.25,.25,.12c.5,.25,.33,.5-.5,.75-.17,0-.34,.04-.5,.12-.84,.25-1.38,.25-1.63,0-.34-.17-.5-.37-.5-.62,0-.66,1.34-1.5,4.02-2.49,5.53-2.33,12.82-4.07,21.88-5.24,5.87-.66,10.18-.87,12.95-.62,3.18,.33,4.78,1.17,4.78,2.49-.08,.58-.55,1.17-1.38,1.75-.34,.25-.67,.25-1.01,0l-.38-.25,.75-.87c.5-.5,.75-.83,.75-1-.08-.75-2.93-1-8.55-.75-6.96,.5-13.29,1.46-18.99,2.87l-2.77,.62,.13,2.37c0,2.74-.17,5.24-.5,7.48-.67,3.74-1.17,6.07-1.51,6.98-.84,2.24-1.84,4.36-3.02,6.36-2.35,4.16-4.32,6.9-5.91,8.23-1.93,1.83-3.35,2.29-4.27,1.37Zm.88-.25c.42,.25,1.38-.37,2.89-1.87,1.51-1.58,2.35-2.78,2.51-3.62,.33-.5,.42-.95,.25-1.37v-.37l-1.26,1.25c-1.43,1.17-2.64,2.49-3.65,3.99-.67,1-.92,1.66-.75,2Z"/>
      <path d="M25.41,85.19c-.08,.17-.29,.08-.63-.25l-.38-.12,1.13-1.75,12.07-19.58c10.14-15.96,17.6-26.89,22.38-32.79,.58-.67,1.01-.96,1.26-.87,.25,0,.38,.04,.38,.12,0,.42-1.51,2.79-4.53,7.11l-3.02,4.24,.25,.37,.25,.5,2.26-1.25c2.18-1.08,3.77-1.7,4.78-1.87,.84,0,1.34,.25,1.51,.75,.33,.83-.42,2.45-2.26,4.86l-1.63,1.87c3.18,1.25,7.08,.58,11.69-2,1.42-.83,2.89-1.79,4.4-2.87,.17-.17,.31-.21,.44-.12,.13,.08,.15,.21,.06,.37l-.63,.62c-1.84,1.42-3.39,2.41-4.65,2.99-4.36,2.24-8.38,2.79-12.07,1.62l-1.13,1.25c-3.02,2.83-5.07,3.28-6.16,1.37-.42-.83-.42-1.91,0-3.24l.13-.62c-.17,.25-1.17,1.66-3.02,4.24-4.28,5.82-9.09,13.18-14.46,22.07-5.03,8.06-7.84,12.38-8.42,12.97Zm26.91-35.04c.67,.17,1.46-.12,2.39-.87,.25-.17,.61-.46,1.07-.87,.46-.42,.86-.79,1.19-1.12l.38-.62c-1.09-.58-2.05-1.5-2.89-2.74-.08-.25-.34-.21-.75,.12-.42,.33-.84,.96-1.26,1.87-.92,2.58-.96,3.99-.12,4.24Zm5.66-4.11c.08,0,.31-.21,.69-.62,.38-.42,.82-.94,1.32-1.56s.88-1.14,1.13-1.56c.5-.66,.84-1.25,1.01-1.75,.17-.42,.21-.67,.12-.75-.25-.25-1.63,.21-4.15,1.37-2.01,1.08-3.02,1.83-3.02,2.24,0,.25,.36,.75,1.07,1.5,.71,.75,1.32,1.12,1.82,1.12Z"/>
      <path d="M76.7,50.4c-.59-.33-.88-.96-.88-1.87s.17-1.79,.5-2.62l.25-.62-.75,.37c-.42,.33-.8,.58-1.13,.75-.17,.08-.46,.25-.88,.5-.42,.25-.75,.46-1.01,.62-.59,.33-1.11,.31-1.57-.06-.46-.37-.57-.93-.31-1.68,.33-.83,1.24-1.83,2.7-2.99,1.46-1.16,2.79-1.91,3.96-2.24,1.01-.25,1.72-.04,2.14,.62,.17,.25,.29,.33,.38,.25,.42-.17,.71-.08,.88,.25l-.12,.12c-.08,.17-.17,.31-.25,.44-.08,.12-.17,.27-.25,.44-1.68,1.66-2.77,3.16-3.27,4.49-.42,1.33-.38,2.2,.13,2.62,.75,.5,2.47,.21,5.15-.87,2.77-1.08,6.2-3.16,10.31-6.23,1.42-1.08,2.09-1.37,2.01-.87-.08,.33-1.24,1.29-3.46,2.87-2.22,1.58-4.17,2.83-5.85,3.74-1.09,.58-2.18,1.08-3.27,1.5-1.09,.42-2.12,.69-3.08,.81-.96,.12-1.74,.02-2.33-.31Zm-3.39-4.86c-.42,.5-.59,.75-.5,.75s.8-.37,2.14-1.12c2.85-1.58,4.27-2.78,4.27-3.62-.17-.5-.84-.33-2.01,.5-1.43,.92-2.72,2.08-3.9,3.49Z"/>
      <path d="M109.39,50.15c1.34,.25,5.41-2.24,12.2-7.48,.92-.75,1.59-1.2,2.01-1.37,.17-.08,.29-.06,.38,.06,.08,.12,.08,.23,0,.31-.17,.17-.88,.75-2.14,1.75-.67,.5-1.49,1.1-2.45,1.81-.96,.71-1.72,1.27-2.26,1.68-.55,.42-1.17,.87-1.89,1.37-.71,.5-1.28,.87-1.7,1.12-.42,.25-.9,.52-1.45,.81-.55,.29-.99,.46-1.32,.5-.34,.04-.71,.08-1.13,.12-.42,.04-.78-.02-1.07-.19-.29-.17-.61-.42-.94-.75-.84-.83-1.09-2.24-.75-4.24,.08-.25,.21-.62,.38-1.12,.17-.5,.27-.85,.31-1.06,.04-.21,.02-.39-.06-.56-.67,.5-1.34,1.04-2.01,1.62-2.6,2.16-3.9,3.62-3.9,4.36,0,.17-.08,.25-.25,.25-.5,0-.67-.21-.5-.62,.17-.5,1.26-2.29,3.27-5.36,1.84-2.83,2.85-4.53,3.02-5.11,.08-.42,.04-.66-.12-.75-.17-.08-.55-.04-1.13,.12-3.19,.67-6.96,2.79-11.32,6.36-.42,.33-1.03,.89-1.82,1.68-.8,.79-1.51,1.5-2.14,2.12-.63,.62-.94,.98-.94,1.06l-.13,.25c-.08,.08-.23,.06-.44-.06-.21-.12-.31-.23-.31-.31,0-.5,1.38-2.37,4.15-5.61,1.01-1.16,1.84-2.08,2.51-2.74,.84-.83,1.42-1.16,1.76-1,.08,.08,.12,.21,.12,.37,0,.42-.55,1.17-1.63,2.24l-.25,.25c.17-.08,.59-.37,1.26-.87,3.69-2.99,6.87-4.49,9.55-4.49,.75,0,1.34,.15,1.76,.44,.42,.29,.58,.73,.5,1.31-.08,.67-.71,1.79-1.89,3.37-.42,.5-.8,1-1.13,1.5l-.13,.12c.17-.08,.29-.17,.38-.25,.84-.58,1.42-.87,1.76-.87,.25,0,.44,.04,.57,.12,.13,.08,.19,.21,.19,.37v.44c0,.12-.06,.33-.19,.62-.13,.29-.19,.52-.19,.69-.84,3.49-.34,5.36,1.51,5.61Z"/>
      <path d="M128.37,50.03c-2.01,.58-3.35,.33-4.02-.75-.5-1,0-2.49,1.51-4.49,.5-.66,.71-1,.63-1-.34,.17-1.01,.25-2.01,.25l-1.76,.12-1.89,2c-1.76,2-2.6,3.16-2.51,3.49,.08,.25,0,.37-.25,.37l-.25-.25c-.17-.08-.29-.17-.38-.25-.17-.25-.21-.58-.13-1l.88-1.62c.5-.66,1.78-2.1,3.83-4.3,2.05-2.2,3.41-3.63,4.09-4.3,.92-.75,1.51-1,1.76-.75,.58,.42-.29,1.83-2.64,4.24l-2.01,1.87,1.38-.12c1.59-.08,2.72-.42,3.4-1,1.76-1.66,2.89-2.24,3.39-1.75,.42,.33,.21,.83-.63,1.5-.92,.75-1.95,1.73-3.08,2.93-1.13,1.21-1.87,2.1-2.2,2.68-.42,1.25-.15,1.87,.82,1.87s2.03-.29,3.21-.87c2.18-.83,5.41-2.74,9.68-5.74l2.39-1.62c.17-.08,.29-.08,.38,0,.08,.08,.08,.21,0,.37-.25,.33-2.26,1.79-6.04,4.36-2.93,2.08-5.45,3.33-7.54,3.74Z"/>
      <path d="M142.7,50.4c-.59-.33-.88-.96-.88-1.87s.17-1.79,.5-2.62l.25-.62-.75,.37c-.42,.33-.8,.58-1.13,.75-.17,.08-.46,.25-.88,.5-.42,.25-.75,.46-1.01,.62-.59,.33-1.11,.31-1.57-.06-.46-.37-.57-.93-.31-1.68,.33-.83,1.24-1.83,2.7-2.99,1.46-1.16,2.79-1.91,3.96-2.24,1.01-.25,1.72-.04,2.14,.62,.17,.25,.29,.33,.38,.25,.42-.17,.71-.08,.88,.25l-.12,.12c-.08,.17-.17,.31-.25,.44-.08,.12-.17,.27-.25,.44-1.68,1.66-2.77,3.16-3.27,4.49-.42,1.33-.38,2.2,.13,2.62,.75,.5,2.47,.21,5.15-.87,2.77-1.08,6.2-3.16,10.31-6.23,1.42-1.08,2.09-1.37,2.01-.87-.08,.33-1.24,1.29-3.46,2.87-2.22,1.58-4.17,2.83-5.85,3.74-1.09,.58-2.18,1.08-3.27,1.5-1.09,.42-2.12,.69-3.08,.81-.96,.12-1.74,.02-2.33-.31Zm-3.39-4.86c-.42,.5-.59,.75-.5,.75s.8-.37,2.14-1.12c2.85-1.58,4.27-2.78,4.27-3.62-.17-.5-.84-.33-2.01,.5-1.43,.92-2.72,2.08-3.9,3.49Z"/>
      <path d="M162.95,51.4c-.34-.33-.46-.71-.38-1.12,.17-1.83,2.05-4.53,5.66-8.1l.75-.87h-.25c-.5,.25-.8,.42-.88,.5-4.44,3.66-7.46,5.28-9.05,4.86-1.17-.42-1.34-1.33-.5-2.74,.5-.66,.88-1.12,1.13-1.37l.38-.37c.84-.83,1.34-1,1.51-.5,.08,.17-.29,.79-1.13,1.87-1.09,1.25-1.51,2-1.26,2.24,.17,.17,.96-.12,2.39-.87,1.68-.75,3.27-1.75,4.78-2.99l1.01-.75-.5-.62c-1.26-1.16-.84-2.78,1.26-4.86,2.43-2.24,3.94-2.66,4.53-1.25,.25,.58,.08,1.41-.5,2.49-.25,.5-.92,1.5-2.01,2.99l-.38,.37,.38-.12c.17-.17,.48-.25,.94-.25s.77,.08,.94,.25c.17,.25-.46,1.04-1.89,2.37-3.27,3.24-5.37,5.78-6.29,7.61l-.38,.75,.5,.12c.25,0,1.01-.21,2.26-.62,.58-.25,1.68-.87,3.27-1.87,2.26-1.41,5.49-3.62,9.68-6.61,.33-.25,.75-.37,1.26-.37l.13,.12-.5,.5-9.3,6.48c-1.51,1-2.68,1.71-3.52,2.12-2.1,1.08-3.44,1.29-4.02,.62Zm4.15-10.97c.42,.17,1.05-.25,1.89-1.25,1.84-1.99,2.77-3.45,2.77-4.36,0-.17-.29-.17-.88,0-1.26,.67-2.35,1.66-3.27,2.99-.92,1.33-1.09,2.2-.5,2.62Z"/>
      <path d="M194.5,48.78c-.92-.75-1.22-1.7-.88-2.87,.42-1.16,1.28-2.41,2.58-3.74,1.3-1.33,2.62-2.29,3.96-2.87,.75-.33,1.42-.44,2.01-.31,.59,.12,.88,.4,.88,.81,0,.67-.5,1.54-1.51,2.62-1.26,1.08-2.1,1.62-2.51,1.62-.59,0-.5-.25,.25-.75,.92-.58,1.72-1.27,2.39-2.06,.67-.79,.88-1.31,.63-1.56-.25-.25-1.05,.08-2.39,1-1.76,1.08-3.17,2.39-4.21,3.93-1.05,1.54-1.36,2.68-.94,3.43,.33,.75,1.59,1,3.77,.75,2.18-.25,4.53-.96,7.04-2.12,2.26-1.08,4.48-2.41,6.66-3.99,.25-.17,.58-.37,1.01-.62l.63-.5c.25,0,.42,.12,.5,.37l-.63,.5c-1.26,1-3.02,2.16-5.28,3.49l-2.77,1.37c-5.28,2.58-9.01,3.08-11.19,1.5Z"/>
      <path d="M214.24,53.89c-1.59,1.16-3,1.73-4.21,1.68-1.21-.04-1.86-.73-1.95-2.06,0-.42-.17-.79-.5-1.12-.25-.17-.38-.46-.38-.87,.08-1.41,2.47-5.24,7.17-11.47l2.64-3.49c.5-.66,1.34-1.66,2.51-2.99,2.93-3.66,6.29-7.15,10.06-10.47,2.51-2.16,4.73-3.74,6.66-4.74,.42-.25,.88-.21,1.38,.12,.33,.25,.33,.58,0,1-.34,.42-1.38,1.54-3.14,3.37-4.78,4.57-8.42,7.81-10.94,9.73-2.1,1.58-3.69,3.04-4.78,4.36l-3.77,4.74c-1.26,1.58-1.89,2.58-1.89,2.99l.13,.62,.88-.62c1.93-1.5,3.6-2.16,5.03-2,1.59,.17,2.26,.96,2.01,2.37-.17,1-.67,2.12-1.51,3.37l-.5,.75c2.51,0,7.04-2.49,13.58-7.48,.33-.25,.58-.21,.75,.12-1.34,1.33-3.81,3.12-7.42,5.36-1.01,.58-2.22,1.17-3.65,1.75-1.17,.5-2.1,.79-2.77,.87l-1.13,.12-.88,1c-1.51,1.5-2.64,2.49-3.39,2.99Zm-4.9,.75c.5,.67,1.8,.17,3.9-1.5,1.93-1.58,3.06-2.7,3.39-3.37-.25,0-.84-.31-1.76-.93-.92-.62-1.55-1.27-1.89-1.93l-1.01,.87c-1.01,.92-1.76,1.87-2.26,2.87-1.01,1.91-1.13,3.24-.38,3.99Zm2.14-7.98c.08,.08,.29-.04,.63-.37,.33-.33,.5-.54,.5-.62l-.13-.37c-.08-.08-.17-.08-.25,0-.08,.08-.21,.29-.38,.62l-.38,.75Zm4.4,2.12c.67,.33,1.07,.48,1.19,.44,.13-.04,.36-.31,.69-.81,1.59-1.91,2.3-3.41,2.14-4.49-.17-.25-.38-.37-.63-.37-.34,0-1.26,.33-2.77,1-1.93,1-2.89,1.66-2.89,2,.25,1,1.01,1.75,2.26,2.24Zm7.79-17.33l1.13-.87c2.77-2,5.99-4.99,9.68-8.98l1.01-1.12c-.25,0-1.76,1.25-4.53,3.74-2.01,1.75-3.98,3.66-5.91,5.74l-1.38,1.5Z"/>
      <path d="M235.11,51.4c-.34-.33-.46-.71-.38-1.12,.17-1.83,2.05-4.53,5.66-8.1l.75-.87h-.25c-.5,.25-.8,.42-.88,.5-4.44,3.66-7.46,5.28-9.05,4.86-1.17-.42-1.34-1.33-.5-2.74,.5-.66,.88-1.12,1.13-1.37l.38-.37c.84-.83,1.34-1,1.51-.5,.08,.17-.29,.79-1.13,1.87-1.09,1.25-1.51,2-1.26,2.24,.17,.17,.96-.12,2.39-.87,1.68-.75,3.27-1.75,4.78-2.99l1.01-.75-.5-.62c-1.26-1.16-.84-2.78,1.26-4.86,2.43-2.24,3.94-2.66,4.53-1.25,.25,.58,.08,1.41-.5,2.49-.25,.5-.92,1.5-2.01,2.99l-.38,.37,.38-.12c.17-.17,.48-.25,.94-.25s.77,.08,.94,.25c.17,.25-.46,1.04-1.89,2.37-3.27,3.24-5.37,5.78-6.29,7.61l-.38,.75,.5,.12c.25,0,1.01-.21,2.26-.62,.58-.25,1.68-.87,3.27-1.87,2.26-1.41,5.49-3.62,9.68-6.61,.33-.25,.75-.37,1.26-.37l.13,.12-.5,.5-9.3,6.48c-1.51,1-2.68,1.71-3.52,2.12-2.1,1.08-3.44,1.29-4.02,.62Zm4.15-10.97c.42,.17,1.05-.25,1.89-1.25,1.84-1.99,2.77-3.45,2.77-4.36,0-.17-.29-.17-.88,0-1.26,.67-2.35,1.66-3.27,2.99-.92,1.33-1.09,2.2-.5,2.62Z"/>
      <path d="M224.55,84.81c-1.26,.25-2.3,.08-3.14-.5-.75-.67-1.26-1.58-1.51-2.74-.25-1.83,.08-3.78,1.01-5.86,1.34-2.99,3.52-5.96,6.54-8.91,3.02-2.95,6.46-5.42,10.31-7.42,2.68-1.33,5.32-2.41,7.92-3.24,3.94-1.41,6.12-2.33,6.54-2.74,.17-.17,.31-.66,.44-1.5,.13-.83,.15-1.45,.06-1.87-.42-1-1.3-1.37-2.64-1.12-.75,0-1.38,.25-1.89,.75-.08,.08-.19,.1-.31,.06-.13-.04-.19-.1-.19-.19-.08-.08-.02-.23,.19-.44,.21-.21,.52-.39,.94-.56,.59-.33,1.13-.67,1.63-1,.75-.58,2.16-2.08,4.21-4.49,2.05-2.41,3.08-3.74,3.08-3.99h-.57c-.21,0-.84,.31-1.89,.93-1.05,.62-2.45,1.56-4.21,2.81-.34,.17-.52,.15-.57-.06-.04-.21,.1-.44,.44-.69,1.42-1.08,2.43-1.79,3.02-2.12,2.93-1.83,4.4-1.99,4.4-.5,0,.25-.38,.96-1.13,2.12-1.68,2.24-3.6,4.28-5.78,6.11l-.5,.5,.5,.12c1.68,.58,2.43,1.87,2.26,3.87v.75l2.51-1.25c1.42-.83,3.98-2.41,7.67-4.74l7.42-5.24,.38-.12c.25,0,.38,.12,.38,.37l-.13,.12-2.14,1.62-1.26,.87-6.54,4.36c-2.18,1.5-5.03,3.16-8.55,4.99l-.38,1.25c-.84,2.08-2.6,4.91-5.28,8.48-4.27,5.9-8.57,10.83-12.89,14.77-4.32,3.95-7.77,6.09-10.37,6.42Zm-.63-.62c1.51-.25,3.52-1.25,6.04-2.99,2.18-1.66,4.32-3.66,6.41-5.99,.84-.92,2.77-3.2,5.78-6.86l2.51-3.24,3.14-4.24c2.77-3.99,4.15-6.11,4.15-6.36l-5.91,2.12c-2.85,.92-5.78,2.2-8.8,3.87-4.61,2.58-8.59,5.82-11.94,9.73-1.76,2.08-3.08,4.22-3.96,6.42-.88,2.2-1.15,4.05-.82,5.55,.5,1.66,1.63,2.33,3.39,2Z"/>
      <path d="M267.55,48.66c-1.34-1.16,.25-3.99,4.78-8.48,1.51-1.5,2.47-2.12,2.89-1.87,.33,.17,.29,.46-.13,.87-.17,.17-.31,.31-.44,.44-.13,.12-.34,.31-.63,.56-.29,.25-.57,.54-.82,.87l-2.26,2.49c1.42,.25,2.14,.75,2.14,1.5,0,.83-.78,1.79-2.33,2.87-1.55,1.08-2.62,1.33-3.21,.75Zm.5-.37c.08,.17,.36,.17,.82,0,.46-.17,.9-.42,1.32-.75,1.26-1,1.97-1.7,2.14-2.12,.17-.42,0-.75-.5-1-.5-.25-.92-.29-1.26-.12-.42,.25-.96,.85-1.63,1.81-.67,.96-.96,1.68-.88,2.18Z"/>
    </g>
  </g>
</svg>